<?xml version="1.0" encoding="UTF-8"?>
<svg id="Calque_2" data-name="Calque 2" xmlns="http://www.w3.org/2000/svg" viewBox="0 0 383.26 383.04">
  <defs>
    <style>
      .cls-1 {
        fill: #8c8c8c;
        stroke-width: 0px;
      }
    </style>
  </defs>
  <g id="Calque_1-2" data-name="Calque 1">
    <path class="cls-1" d="M256.81,383.04h-9.73c-8.29-2.9-14.29-7.98-17.16-16.66-14.13-42.71-28.39-85.37-42.69-128.02-.88-2.62-.63-4.52,1-6.84,27.23-38.75,54.35-77.57,81.5-116.37.8-1.15,1.54-2.34,2.31-3.52-1.82.22-3.03.98-4.2,1.79-38.8,26.94-77.61,53.87-116.35,80.88-2.56,1.78-4.63,2.26-7.79,1.2-40.05-13.5-80.17-26.78-120.27-40.15-3.89-1.3-7.81-2.57-11.52-4.29-6.42-2.98-9.49-8.8-11.9-15.05v-9.73c3.11-8.7,8.7-14.47,17.83-17.38,59.22-18.87,118.35-37.99,177.51-57.05,52.17-16.81,104.32-33.71,156.55-50.35,4.23-1.35,9.22-1.95,13.51-1.13,13.96,2.69,21.04,15.97,16.48,30.13-35.99,111.93-72.04,223.85-108.06,335.77-1.52,4.74-3.84,9.03-7.97,11.9-2.8,1.94-6.01,3.27-9.04,4.87Z"/>
  </g>
</svg>