<?xml version="1.0" encoding="UTF-8" standalone="no"?>
<!-- Created with Inkscape (http://www.inkscape.org/) -->
<svg
   xmlns:svg="http://www.w3.org/2000/svg"
   xmlns="http://www.w3.org/2000/svg"
   version="1.0"
   width="2600"
   height="825"
   id="svg2">
  <defs
     id="defs5" />
  <path
     d="M 1517.4559,762.62421 C 1500.9342,759.30591 1487.1483,750.45411 1481.5461,739.56691 C 1479.2551,735.11461 1477.007,724.72981 1477.8555,722.51861 C 1478.2664,721.44781 1480.7271,721.11761 1488.2967,721.11761 L 1498.2003,721.11761 L 1498.8546,725.20941 C 1501.4017,741.13821 1516.2711,749.34281 1542.4898,749.28641 C 1559.651,749.24941 1574.6343,744.97091 1578.9111,738.88611 C 1583.7557,731.99341 1582.812,723.21271 1576.6816,718.14071 C 1571.705,714.02341 1563.7466,711.69461 1540.4559,707.54011 C 1511.65,702.40181 1506.5748,701.21361 1499.8347,698.02981 C 1488.4715,692.66231 1483.5153,685.35241 1483.4779,673.90516 C 1483.3933,648.06683 1510.4892,633.05413 1550.0384,637.02667 C 1563.5029,638.37912 1570.8959,640.22432 1579.1699,644.2976 C 1589.747,649.50472 1597.3156,659.88022 1598.9165,671.36765 L 1599.5784,676.11765 L 1589.0172,676.11765 C 1579.6292,676.11765 1578.4548,675.92323 1578.4461,674.36765 C 1578.4239,670.38361 1573.5215,662.17774 1569.3647,659.16651 C 1553.1214,647.39993 1515.4987,649.66193 1507.2675,662.9 C 1503.9566,668.22478 1504.0436,675.96523 1507.4559,679.67292 C 1511.6842,684.26721 1517.024,685.84051 1545.9887,691.02601 C 1581.1576,697.32221 1589.3767,700.09931 1596.2252,707.99981 C 1601.6066,714.20771 1602.9417,718.10861 1602.9395,727.61761 C 1602.9378,735.43921 1602.587,737.28411 1600.2609,741.70771 C 1596.8307,748.23101 1591.8644,752.54731 1582.88,756.81401 C 1571.7101,762.11861 1559.9926,764.10621 1540.4559,764.01051 C 1531.2203,763.96531 1521.0942,763.35491 1517.4559,762.62421 z M 969.45587,700.61761 L 969.45587,640.11765 L 1010.5085,640.11765 C 1056.6391,640.11765 1060.847,640.57795 1071.1126,646.74701 C 1079.1503,651.57723 1081.0618,653.57163 1084.6615,660.88375 C 1087.3368,666.31807 1087.7741,668.28754 1087.7327,674.71576 C 1087.6403,689.05961 1079.15,700.63991 1064.3571,706.59921 L 1056.9559,709.58071 L 1024.7059,709.92271 L 992.45587,710.26471 L 992.45587,735.69121 L 992.45587,761.11761 L 980.95587,761.11761 L 969.45587,761.11761 L 969.45587,700.61761 z M 1049.1128,693.62691 C 1059.9268,690.41551 1064.8822,684.29361 1064.9084,674.11323 C 1064.9277,666.61266 1062.0229,662.0314 1055.1002,658.64445 C 1048.1249,655.23177 1037.833,654.13466 1012.7059,654.12524 L 992.45587,654.11765 L 992.45587,674.61765 L 992.45587,695.11761 L 1018.2744,695.11761 C 1038.2414,695.11761 1045.2306,694.77981 1049.1128,693.62691 z M 1087.0366,757.96161 C 1088.5991,754.94011 1108.4789,714.40151 1133.1796,663.86765 L 1144.7885,640.11765 L 1157.4392,640.11765 L 1170.0898,640.11765 L 1179.1872,659.36765 C 1202.5887,708.88541 1226.4559,759.95261 1226.4559,760.50591 C 1226.4559,760.84231 1221.1153,761.11761 1214.5879,761.11761 L 1202.7198,761.11761 L 1194.8849,743.61761 L 1187.05,726.11761 L 1156.003,726.13701 L 1124.9559,726.15631 L 1116.9559,743.61301 L 1108.9559,761.06971 L 1097.1802,761.09371 L 1085.4045,761.11761 L 1087.0366,757.96161 z M 1168.1264,685.61761 C 1162.0369,671.59265 1156.8074,660.11998 1156.5053,660.12284 C 1156.0594,660.12705 1134.557,705.08471 1132.7556,709.77911 C 1132.3355,710.87371 1136.5199,711.11761 1155.7201,711.11761 L 1179.1982,711.11761 L 1168.1264,685.61761 z M 1254.4559,700.61761 L 1254.4559,640.11765 L 1297.7722,640.11765 C 1343.7953,640.11765 1348.1936,640.461 1359.8177,644.96116 C 1372.7707,649.97582 1379.4559,659.39053 1379.4559,672.61765 C 1379.4559,684.45121 1373.7722,693.85461 1363.4308,699.13041 L 1359.2152,701.28111 L 1364.276,703.62571 C 1370.1546,706.34931 1374.995,712.30631 1375.8788,717.90511 C 1376.2012,719.94701 1376.8948,728.30661 1377.4203,736.48201 C 1378.4176,751.99851 1379.4136,755.33471 1383.4293,756.60921 C 1384.5439,756.96301 1385.4559,758.12211 1385.4559,759.18501 C 1385.4559,760.99961 1384.6325,761.11761 1371.975,761.11761 L 1358.494,761.11761 L 1357.8914,758.36761 C 1357.56,756.85511 1357.0801,754.96271 1356.825,754.16231 C 1356.5698,753.36181 1355.9645,746.07971 1355.4798,737.97971 C 1354.5674,722.73291 1353.9803,720.51361 1349.6241,715.84411 C 1344.7303,710.59831 1339.943,709.87591 1306.7059,709.36691 L 1276.4559,708.90371 L 1276.4559,735.01071 L 1276.4559,761.11761 L 1265.4559,761.11761 L 1254.4559,761.11761 L 1254.4559,700.61761 z M 1342.22,692.69381 C 1348.6694,690.65761 1353.944,686.19881 1355.5074,681.46171 C 1357.1887,676.36712 1356.2788,666.7026 1353.8025,663.35421 C 1350.6646,659.11114 1344.453,656.19131 1336.3174,655.13511 C 1332.2686,654.60947 1317.1434,654.16551 1302.7059,654.14853 L 1276.4559,654.11765 L 1276.4559,674.74098 L 1276.4559,695.36431 L 1306.7059,694.86011 C 1331.083,694.45381 1337.9779,694.03321 1342.22,692.69381 z M 1419.4559,700.61761 L 1419.4559,640.11765 L 1430.4559,640.11765 L 1441.4559,640.11765 L 1441.4559,700.61761 L 1441.4559,761.11761 L 1430.4559,761.11761 L 1419.4559,761.11761 L 1419.4559,700.61761 z M 2139.4559,663.45662 C 2136.9809,663.28524 2131.2434,662.87346 2126.7059,662.54156 L 2118.4559,661.93811 L 2118.4559,634.09632 L 2118.4559,606.25453 L 2134.8734,606.83661 C 2153.5088,607.49732 2162.5958,606.43232 2174.6156,602.17885 C 2194.2804,595.22004 2209.4992,581.20581 2220.4655,559.95787 C 2225.0647,551.04672 2231.3449,534.14042 2232.9488,526.35298 L 2233.6213,523.08832 L 2226.7886,523.58045 C 2223.0306,523.85112 2210.1705,524.32126 2198.2105,524.62521 L 2176.4652,525.17785 L 2168.5739,508.89775 C 2164.2337,499.94369 2155.8523,482.71765 2149.9485,470.61765 C 2144.0447,458.51765 2135.9479,441.86765 2131.9555,433.61765 C 2127.9631,425.36765 2119.1874,407.36765 2112.4538,393.61765 C 2105.7202,379.86765 2096.9444,361.86765 2092.9521,353.61765 C 2088.9598,345.36765 2080.4091,327.81765 2073.9506,314.61765 C 2036.2926,237.65114 2024.4559,213.12107 2024.4559,212.0458 C 2024.4559,211.48508 2048.3074,211.1219 2084.7059,211.12839 L 2144.9559,211.13913 L 2156.3864,237.37839 C 2185.771,304.83216 2207.2757,353.93233 2218.4648,379.11765 C 2225.1844,394.24265 2233.7446,414.04265 2237.4874,423.11765 C 2250.2976,454.17826 2260.0802,476.4924 2261.0181,476.79159 C 2261.5339,476.95613 2266.2081,463.2593 2271.4051,446.3542 C 2276.6022,429.4491 2283.7323,407.29265 2287.2498,397.11765 C 2302.7265,352.34821 2316.293,312.79867 2328.9273,275.61765 C 2336.403,253.61765 2344.2459,230.66765 2346.3559,224.61765 L 2350.1923,213.61765 L 2407.8241,213.35953 C 2439.5216,213.21756 2465.4559,213.31161 2465.4559,213.56853 C 2465.4559,213.82545 2460.3391,227.6666 2454.0852,244.32665 C 2447.8314,260.9867 2437.5137,288.56765 2431.1571,305.61765 C 2424.8005,322.66765 2410.5369,360.91765 2399.4602,390.61765 C 2388.3836,420.31765 2376.8148,451.36765 2373.7519,459.61765 C 2333.1583,568.95706 2329.9119,576.86648 2317.1113,597.61765 C 2289.3885,642.55938 2257.5443,658.83358 2188.9559,663.11242 C 2174.1842,664.03393 2150.2012,664.2007 2139.4559,663.45662 z M 285.95588,528.44866 C 241.13454,526.67328 203.07969,521.31127 179.11096,513.39397 C 146.14499,502.50471 127.95155,479.9832 124.46976,445.75404 C 123.87449,439.9021 123.68583,432.86493 124.0505,430.11589 L 124.71354,425.11765 L 183.08471,425.11765 C 215.18885,425.11765 241.45054,425.23015 241.44401,425.36765 C 241.43748,425.50515 240.76782,428.09265 239.95588,431.11765 C 236.97768,442.21332 238.46555,450.57494 244.67297,457.62693 C 256.72742,471.32152 286.16102,478.10553 333.56066,478.11423 C 381.83631,478.1231 414.1228,471.5102 429.32168,458.50053 C 438.89707,450.30435 441.59034,435.85224 435.90377,423.18089 C 431.24137,412.79167 422.01946,406.27915 405.95588,402.03167 C 399.02429,400.19885 393.54868,399.7996 364.95588,399.04219 C 268.06065,396.47548 237.03686,394.25573 203.68066,387.50291 C 177.05016,382.11169 163.1337,375.73821 150.43552,363.11765 C 143.65123,356.37482 141.00933,352.86048 137.6558,346.11765 C 130.39249,331.51351 129.08012,324.75602 129.01348,301.61765 C 128.96161,283.60664 129.18493,280.82654 131.25904,273.66272 C 132.52578,269.2875 135.20468,262.5375 137.21216,258.66272 C 141.91508,249.58523 154.39424,236.8641 163.62243,231.74032 C 181.83894,221.62597 209.30341,215.62431 256.56435,211.43024 C 281.39418,209.22677 387.05952,208.86025 410.95588,210.8947 C 455.55378,214.6916 481.84977,220.1616 499.95588,229.40818 C 515.56457,237.37936 528.45437,253.84644 532.93663,271.542 C 534.56198,277.95875 536.45588,291.57373 536.45588,296.84142 L 536.45588,300.11765 L 481.12618,300.11765 L 425.79648,300.11765 L 424.02902,291.89268 C 420.6621,276.22451 414.6981,268.43452 403.52579,265.112 C 392.65822,261.8801 382.54706,261.03643 347.45588,260.43357 C 311.86632,259.82215 297.1625,260.63666 281.30264,264.09813 C 267.49861,267.1109 258.16175,271.47682 251.42462,278.0691 C 244.65219,284.69592 243.0095,289.01163 243.16129,299.7787 C 243.38018,315.30482 248.75433,324.42492 259.50063,327.50707 C 269.96878,330.50944 302.98037,332.97579 361.45588,335.1243 C 450.4917,338.39566 499.97418,345.76543 522.54183,359.11594 C 531.79279,364.5886 540.50601,374.24497 545.33847,384.38016 C 551.97389,398.29674 552.93862,403.71509 552.94782,427.11765 C 552.95689,450.1861 551.68832,457.02463 544.91206,470.43645 C 526.00339,507.86116 483.72729,523.05572 384.45588,528.10641 C 367.21634,528.98352 304.92336,529.19996 285.95588,528.44866 z M 992.95587,528.06752 C 893.72181,522.59119 856.07486,505.96169 843.41217,462.01071 C 841.86051,456.62502 841.13309,450.61271 840.73315,439.86765 L 840.18413,425.11765 L 898.82,425.11765 C 931.06974,425.11765 957.45587,425.39019 957.45587,425.72331 C 957.45587,426.05642 956.73437,429.09392 955.85247,432.47331 C 949.62497,456.33701 967.00537,470.28799 1010.4559,476.30261 C 1024.9575,478.31 1079.5002,478.00747 1095.0268,475.83353 C 1126.7684,471.38929 1146.186,462.46141 1152.5291,449.39494 C 1156.0101,442.22429 1155.832,430.4505 1152.1278,422.87954 C 1147.0825,412.56735 1137.9954,406.30219 1121.8662,402.01549 C 1115.0268,400.19777 1109.4883,399.7942 1080.9559,399.03457 C 1000.6265,396.89592 972.41687,395.35629 944.45588,391.58465 C 897.52486,385.25415 874.25167,375.42991 859.85383,355.87182 C 849.95241,342.42169 845.61464,328.24052 844.75017,306.49442 C 843.39999,272.53026 852.29709,251.06744 874.22252,235.39717 C 891.95434,222.72409 922.18611,215.60203 977.45587,211.07722 C 998.50227,209.35421 1083.4224,208.67908 1108.9559,210.03178 C 1195.3375,214.60805 1229.3627,226.82875 1244.4134,258.68346 C 1248.4345,267.19414 1251.3243,279.26192 1252.1224,290.87619 L 1252.7587,300.13472 L 1197.4445,299.87619 L 1142.1303,299.61765 L 1139.8117,290.16496 C 1133.3166,263.68509 1124.7915,260.70205 1055.4559,260.64778 C 1022.5892,260.62206 1015.3549,260.88713 1006.0142,262.45939 C 986.72327,265.7065 972.51127,271.73475 965.60637,279.59903 C 960.66477,285.22725 959.15247,290.75025 959.65657,301.3287 C 960.39877,316.90534 965.07197,324.51926 975.77237,327.58607 C 985.96547,330.50747 1019.4511,332.99062 1077.4559,335.12651 C 1168.667,338.48514 1218.9021,346.18008 1240.1861,360.0533 C 1249.6297,366.20874 1256.0467,373.45596 1261.0044,383.56491 C 1266.3563,394.4776 1268.0827,400.94226 1269.5419,415.53512 C 1271.7081,437.19632 1268.1276,457.66606 1259.2511,474.36859 C 1254.7726,482.79549 1240.9845,496.66147 1231.8248,501.94985 C 1208.8109,515.23693 1175.5613,522.70096 1119.4559,527.17496 C 1101.8455,528.57927 1013.5216,529.20246 992.95587,528.06752 z M 1743.4559,528.51611 C 1680.306,525.13966 1643.6821,518.37565 1616.9559,505.15304 C 1599.1996,496.36824 1589.4618,486.81303 1579.9703,468.86089 C 1571.7075,453.23286 1566.5298,434.91762 1562.7982,408.11765 C 1560.2767,390.00823 1560.2641,340.43546 1562.7767,323.72374 C 1568.046,288.67707 1579.2107,263.7155 1596.8999,247.43222 C 1605.592,239.43098 1611.9945,235.38403 1624.4696,230.00572 C 1645.8682,220.78028 1675.2085,214.76191 1717.4559,210.9321 C 1737.2642,209.13644 1823.8091,209.13512 1842.9559,210.93019 C 1895.0878,215.81773 1929.7362,225.14208 1949.3981,239.57522 C 1969.671,254.45691 1982.6406,279.31877 1988.5451,314.61765 C 1990.2372,324.73345 1992.1848,357.30736 1992.4165,379.36765 L 1992.4559,383.11765 L 1834.5012,383.11765 L 1676.5465,383.11765 L 1675.8603,386.77579 C 1674.6437,393.26032 1676.2043,418.01362 1678.3872,426.85799 C 1682.1173,441.97118 1689.079,452.69736 1699.4519,459.31363 C 1715.1561,469.33038 1754.194,474.13498 1803.4784,472.11673 C 1854.2992,470.03556 1868.8026,464.68238 1875.5305,445.52249 C 1876.6709,442.27483 1877.86,436.13015 1878.1728,431.86765 L 1878.7417,424.11765 L 1935.6525,424.11765 L 1992.5633,424.11765 L 1991.9384,435.36765 C 1990.873,454.54419 1988.2948,463.57433 1980.6861,474.77863 C 1961.5451,502.96504 1919.2956,519.68006 1849.4559,526.69674 C 1834.827,528.16648 1760.7096,529.43863 1743.4559,528.51611 z M 1879.1429,322.36765 C 1877.6196,288.0208 1868.6484,275.83399 1840.7324,270.18959 C 1813.6515,264.71403 1758.826,263.7088 1729.4559,268.14932 C 1710.3246,271.04183 1697.0954,276.26505 1690.9112,283.36782 C 1683.4791,291.90384 1678.7542,306.82061 1677.766,324.86765 L 1677.15,336.11765 L 1778.4513,336.11765 L 1879.7527,336.11765 L 1879.1429,322.36765 z M 640.45588,369.11765 L 640.45588,213.11765 L 697.45588,213.11765 L 754.45588,213.11765 L 754.45588,369.11765 L 754.45588,525.11765 L 697.45588,525.11765 L 640.45588,525.11765 L 640.45588,369.11765 z M 1356.4559,302.61765 L 1356.4559,80.117652 L 1413.4559,80.117652 L 1470.4559,80.117652 L 1470.4559,302.61765 L 1470.4559,525.11765 L 1413.4559,525.11765 L 1356.4559,525.11765 L 1356.4559,302.61765 z M 640.45588,111.61765 L 640.45588,80.117652 L 697.45588,80.117652 L 754.45588,80.117652 L 754.45588,111.61765 L 754.45588,143.11765 L 697.45588,143.11765 L 640.45588,143.11765 L 640.45588,111.61765 z"
     id="path2384"
     style="fill:#000000" />
</svg>
